# xmcd
# Track frame offsets:
# 180
# 1444
# 24454
# 38345
# 64090
# 81421
# 109269
# 141347
# 162052
# 178854
# 197171
#
# Disc length: 2931 seconds
# Revision: 0
# Processed by: cddbd v1.5.1PL2 Copyright (c) Steve Scherf et al.
# Submitted via: VisiTrax 2.10.0.248 - For more info visit www.synapsa.com
#
DISCID=8e0b710b
DTITLE=Sundance And The Men In Blues - Sundance And The Men In Blues
DYEAR=1994
DGENRE=Blues
TTITLE0=Runnin' Blues (intro)
TTITLE1=Runnin' Blues
TTITLE2=Heartbreakin' Day
TTITLE3=Nowhere To Go, Nothing To Lose
TTITLE4=Tigera
TTITLE5=Children Of War
TTITLE6=In The Can
TTITLE7=Just One More Sunrise
TTITLE8=All The Same
TTITLE9=Dancer
TTITLE10=I Shall Be Released
EXTD=
EXTT0=
EXTT1=
EXTT2=
EXTT3=
EXTT4=
EXTT5=
EXTT6=
EXTT7=
EXTT8=
EXTT9=
EXTT10=
PLAYORDER=
